<!DOCTYPE svg PUBLIC "-//W3C//DTD SVG 20010904//EN" "http://www.w3.org/TR/2001/REC-SVG-20010904/DTD/svg10.dtd">
<svg version="1.0" xmlns="http://www.w3.org/2000/svg" width="444px" height="426px" viewBox="0 0 4440 4260" preserveAspectRatio="xMidYMid meet">
<g id="layer1" fill="#f2b933" stroke="none">
 <path d="M473 1893 c-7 -2 -13 -21 -13 -41 0 -50 55 -260 91 -352 32 -79 137 -284 173 -336 129 -186 327 -383 504 -503 183 -124 495 -247 671 -266 48 -6 65 -4 72 6 14 22 11 136 -4 151 -8 7 -42 19 -78 26 -86 18 -255 71 -299 93 -19 10 -57 28 -85 41 -252 113 -538 379 -677 628 -84 150 -164 365 -183 488 -10 61 -25 72 -98 71 -34 0 -68 -3 -74 -6z"/>
 </g>
<g id="layer2" fill="#2c3d4e" stroke="none">
 <path d="M2397 3885 c-18 -17 -24 -109 -9 -132 10 -15 86 -43 118 -43 13 0 49 -7 81 -16 32 -9 72 -19 88 -24 134 -37 332 -134 464 -228 106 -75 272 -232 325 -307 132 -186 168 -249 243 -430 36 -85 68 -207 88 -327 9 -55 27 -68 95 -68 72 0 95 18 85 64 -4 17 -11 49 -16 71 -5 22 -13 63 -18 90 -29 152 -120 370 -233 555 -136 224 -394 467 -640 601 -181 98 -372 167 -528 190 -30 4 -71 11 -91 14 -26 5 -40 3 -52 -10z"/>
 </g>
<g id="layer3" fill="#4379b8" stroke="none">
 <path d="M1915 3894 c-111 -23 -222 -51 -280 -71 -583 -203 -1020 -686 -1155 -1277 -12 -50 -25 -107 -30 -127 -25 -92 -6 -119 81 -119 80 0 93 14 108 119 44 302 231 648 473 876 208 196 488 344 772 406 82 18 98 34 104 101 4 47 1 59 -17 77 -11 11 -24 20 -28 20 -5 -1 -17 -3 -28 -5z"/>
 </g>
<g id="layer4" fill="#4daadc" stroke="none">
 <path d="M3802 1892 c-7 -5 -26 -60 -41 -123 -152 -613 -629 -1068 -1244 -1190 -141 -27 -147 -32 -147 -115 0 -69 12 -84 68 -84 53 0 233 39 332 71 132 44 396 176 455 229 11 10 38 30 60 44 74 49 234 206 320 313 122 152 249 384 295 538 59 196 79 303 58 316 -17 11 -139 11 -156 1z"/>
 </g>
<g id="layer5" fill="#eb2c26" stroke="none">
 <path d="M1850 2720 c-8 -5 -40 -20 -72 -33 -70 -31 -132 -93 -153 -155 -9 -26 -23 -62 -31 -80 -22 -51 -20 -666 2 -719 69 -165 120 -226 216 -256 48 -15 106 -17 481 -17 374 0 427 2 441 16 12 11 16 36 16 99 0 63 -4 88 -16 99 -13 14 -66 16 -425 16 -420 0 -437 1 -466 39 -9 12 -12 106 -13 364 l0 348 25 24 24 25 420 0 c368 0 421 2 435 16 23 22 23 186 0 208 -14 14 -67 16 -442 15 -235 0 -434 -4 -442 -9z"/>
 </g>

</svg>